<mxfile host="app.diagrams.net" modified="2023-08-19T09:56:44.005Z" agent="Mozilla/5.0 (Windows NT 10.0; Win64; x64) AppleWebKit/537.36 (KHTML, like Gecko) Chrome/116.0.0.0 Safari/537.36" etag="C_qZ415HU5XSzITeCPd7" version="21.6.8" type="github">
  <diagram name="Страница — 1" id="df5o-YtDUiF11qTRMZAJ">
    <mxGraphModel dx="4148" dy="2220" grid="1" gridSize="6" guides="1" tooltips="1" connect="1" arrows="1" fold="1" page="1" pageScale="1" pageWidth="3300" pageHeight="2339" math="0" shadow="0">
      <root>
        <mxCell id="0" />
        <mxCell id="1" parent="0" />
      </root>
    </mxGraphModel>
  </diagram>
</mxfile>
